<svg id="그룹_40719" data-name="그룹 40719" xmlns="http://www.w3.org/2000/svg" xmlns:xlink="http://www.w3.org/1999/xlink" width="32" height="32" viewBox="0 0 32 32">
  <defs>
    <clipPath id="clip-path">
      <rect id="사각형_34888" data-name="사각형 34888" width="32" height="32" fill="none"/>
    </clipPath>
  </defs>
  <g id="그룹_40717" data-name="그룹 40717" clip-path="url(#clip-path)">
    <g id="그룹_40716" data-name="그룹 40716">
      <g id="그룹_40715" data-name="그룹 40715" clip-path="url(#clip-path)">
        <g id="그룹_40714" data-name="그룹 40714" opacity="0">
          <g id="그룹_40713" data-name="그룹 40713">
            <g id="그룹_40712" data-name="그룹 40712" clip-path="url(#clip-path)">
              <rect id="사각형_34885" data-name="사각형 34885" width="32" height="32" fill="#f4b6b6"/>
            </g>
          </g>
        </g>
        <path id="패스_78142" data-name="패스 78142" d="M10.642,6a5.037,5.037,0,0,1,3.649,1.587l1,1.006L16,9.306l.709-.713L17.72,7.576A5.026,5.026,0,0,1,21.358,6a5.567,5.567,0,0,1,4.014,1.778,5.636,5.636,0,0,1,0,7.942L16,25.55,6.628,15.716a5.633,5.633,0,0,1,0-7.938A5.567,5.567,0,0,1,10.642,6M21.358,5A6,6,0,0,0,17,6.882L16,7.888,15,6.882A6,6,0,0,0,10.642,5,6.6,6.6,0,0,0,5.908,7.084a6.652,6.652,0,0,0,0,9.326L16,27,26.092,16.41a6.652,6.652,0,0,0,0-9.326A6.6,6.6,0,0,0,21.358,5" fill="#fff"/>
      </g>
    </g>
  </g>
</svg>
