<svg xmlns="http://www.w3.org/2000/svg" viewBox="0 0 146.68 106.55"><defs><style>.cls-1{fill:#db924c;}.cls-1,.cls-2,.cls-3,.cls-4,.cls-5{stroke:#fff1d4;}.cls-1,.cls-2,.cls-3{stroke-width:2.11px;}.cls-2{fill:#53a49a;}.cls-3,.cls-5{fill:#ed7d78;}.cls-4{fill:#80442c;stroke-width:2.04px;}.cls-5{stroke-linecap:round;stroke-linejoin:round;stroke-width:3.17px;}</style></defs><g id="레이어_2" data-name="레이어 2"><g id="Layer_1" data-name="Layer 1"><path class="cls-1" d="M132.3,68.93c-15.24-7.05-56.62,2.71-56.62,2.71S34.3,61.88,19.07,68.93c-10.33,4.79-11,23.72-1.95,30.43,12.1,9,44.51,5.46,58.56,5.46s46.46,3.51,58.56-5.46C143.28,92.65,142.62,73.72,132.3,68.93Z"/><path class="cls-2" d="M84.47,83.28c-4.26,1.39-6.81,5-11.76,4.6-4-.33-6.81-3.39-10.51-4.6-4.46-1.46-7,2.69-11.31,4.29-6.83,2.54-4.88-4.88-10.74-4.88s-8.59,4.68-12.88,4.68c-3.32,0-5.14-3.44-8-4.66-4-1.75-6.57.23-10.38.81C6,84,.13,83.12,1.18,78.9c.74-3,5.37-3.48,7.62-4.92,2.9-1.85,5.34-4.63,7.91-6.9,4-3.57,9.88-7.88,15.64-7.43h82c5.76-.45,11.59,3.86,15.64,7.43,2.56,2.27,5,5,7.91,6.9,2.24,1.44,6.88,2,7.62,4.92,1.05,4.22-4.83,5.07-7.75,4.62-3.81-.58-6.33-2.56-10.38-.81-2.82,1.22-4.64,4.66-8,4.66-4.3,0-7-4.68-12.89-4.68s-3.9,7.42-10.73,4.88C91.48,86,88.93,81.82,84.47,83.28Z"/><path class="cls-3" d="M69.34,68c0,5-12.73,9-28.42,9S12.5,73,12.5,68s12.73-9,28.42-9S69.34,63,69.34,68Z"/><path class="cls-3" d="M138.51,68c0,5-12.72,9-28.41,9s-28.42-4-28.42-9,12.72-9,28.42-9S138.51,63,138.51,68Z"/><ellipse class="cls-3" cx="73.16" cy="68.01" rx="28.42" ry="9.01"/><path class="cls-4" d="M140,56.12A11.86,11.86,0,0,1,128.18,68H23A11.86,11.86,0,0,1,11.09,56.12h0A11.85,11.85,0,0,1,23,44.27H128.18A11.85,11.85,0,0,1,140,56.12Z"/><path class="cls-2" d="M84.47,53.78c-4.26,1.39-6.81,5-11.76,4.6-4-.33-6.81-3.4-10.51-4.61-4.46-1.45-7,2.69-11.31,4.29C44.06,60.6,46,53.18,40.15,53.18s-8.59,4.69-12.88,4.69c-3.32,0-5.14-3.45-8-4.67-4-1.75-6.57.24-10.38.82-2.92.45-8.8-.41-7.75-4.63.74-3,5.37-3.48,7.62-4.91,2.9-1.86,5.34-4.63,7.91-6.9,4-3.58,9.88-7.88,15.64-7.43h82c5.76-.45,11.59,3.85,15.64,7.43,2.56,2.27,5,5,7.91,6.9,2.24,1.43,6.88,1.94,7.62,4.91,1.05,4.22-4.83,5.08-7.75,4.63-3.81-.58-6.33-2.57-10.38-.82-2.82,1.22-4.64,4.67-8,4.67-4.3,0-7-4.69-12.89-4.69s-3.9,7.42-10.73,4.88C91.48,56.46,88.93,52.31,84.47,53.78Z"/><path class="cls-1" d="M140.88,33.46c-3.9-10.93-23.82-32.4-65.2-32.4s-61.29,21.47-65.2,32.4S16,45.17,16,45.17H135.41S144.78,44.39,140.88,33.46Z"/><path class="cls-5" d="M63.35,11.12c.17.86.37,1.65.62,2.48"/><path class="cls-5" d="M76.39,7.08a10.21,10.21,0,0,0-1.24,2.17"/><path class="cls-5" d="M88.19,8a5.45,5.45,0,0,0,2.48,1.56"/><path class="cls-5" d="M84.77,14.22a9.18,9.18,0,0,0,.31,2.18"/><path class="cls-5" d="M50.3,9.88c-.61.54-1.22,1-1.86,1.55"/><path class="cls-5" d="M103.41,12.36a1.79,1.79,0,0,0,1.24,1.55"/></g></g></svg>